<svg 
          width="30" 
          height="29.195068359375" fill="none" 
          xmlns="http://www.w3.org/2000/svg">
          <path d="M 21.5602232939203 1.4586583972366414e-14 C 22.175783118198346 1.4586583972366414e-14 22.785316019141796 0.11799844390449499 23.35401913798028 0.3472580732374785 C 23.922722256818766 0.576517702570462 24.439459967299715 0.9125487609923042 24.874726479371695 1.33616532163949 C 25.309992991443675 1.7597818822866758 25.655263956346847 2.262688186502344 25.89082849392354 2.816169909883458 C 26.126393031500232 3.3696516332645716 26.247637911854483 3.9628694554539123 26.247637911854476 4.56195375989985 L 26.247637911854476 10.952338322249977 C 25.60193464212964 10.980905436010843 24.96679980581764 11.122458204665003 24.372670991817152 11.37021345372054 L 24.372670991817152 7.29912601583976 L 1.8730903026953674 7.29912601583976 L 1.8730903026953674 20.983161776170515 C 1.8730903026953674 21.70910499341153 2.1694005480127942 22.40531581441492 2.696836804563819 22.918635187176182 C 3.2242730611148436 23.431954559937445 3.9396304948798178 23.720334032110422 4.685538000592221 23.720334032110426 L 12.138524221208273 23.720334032110426 C 12.108524777672477 23.81157310866799 12.08227485291263 23.90828603779129 12.057900305694618 24.003174677954984 L 11.662283621281992 25.54511727631762 L 4.687412829828089 25.54511727631762 C 3.444233635014646 25.54511727631762 2.2519718786939293 25.06448426074114 1.372911432482783 24.208951954678128 C 0.4938509862716366 23.353419648615116 0 22.19306715636645 0 20.983161776170515 L 0 4.560129110654681 C 0.0004971417318553648 3.3505399116315946 0.49456784917897323 2.190657775585882 1.3735743728158285 1.3355201249702995 C 2.2525808964526837 0.48038247435471704 3.444558399783329 -9.676713065197265e-8 4.687412829828089 1.4586583972366414e-14 L 21.5602232939203 1.4586583972366414e-14 Z M 21.5602232939203 1.82478150395994 L 4.685538000592221 1.82478150395994 C 3.939955427283447 1.8252652554144713 3.2250799439881725 2.113859032812433 2.6980491404931644 2.627125980625187 C 2.171018336998156 3.1403929284379415 1.8749649662461603 3.836326615066229 1.8749651319312357 4.56195375989985 L 1.8749651319312357 5.47434451187982 L 24.374546715106064 5.47434451187982 L 24.374546715106064 4.56195375989985 C 24.37454671510606 3.8360105426588342 24.078236469788635 3.1397997216554456 23.55080021323761 2.6264803488941832 C 23.023363956686588 2.113160976132921 22.308006522921612 1.82478150395994 21.56209901720921 1.82478150395994 L 21.5602232939203 1.82478150395994 Z M 14.960346959337514 22.583496630873054 L 24.014552680227983 13.76980036571907 C 24.672443122282377 13.130002432953045 25.564536570882197 12.770761578534852 26.494582515374137 12.771103791454983 C 27.424628459866078 12.771446004375115 28.31644139932295 13.131343946054495 28.973834524370933 13.771625885087865 C 29.631227649418914 14.411907824121235 30.000351624176126 15.280124302969591 30 16.185277475388208 C 29.999648375823874 17.090430647806826 29.629851031242506 17.958375865614567 28.97196058918811 18.59817379838059 L 19.917754868297642 27.40821902479698 C 19.390199535056656 27.921897976146973 18.729173593094288 28.28645153749921 18.00528957543686 28.462941119136374 L 15.196591536011741 29.147234183121352 C 14.917247176550681 29.21471827966245 14.624717574230841 29.21073662113808 14.347421741748844 29.1356754608644 C 14.070125909266848 29.060614300590725 13.817493843178209 28.917027084328673 13.614067578966342 28.7188618802184 C 13.410641314754475 28.52069667610813 13.263337114066358 28.274691395218365 13.18646882901939 28.00474793929951 C 13.109600543972421 27.734804483380653 13.10578181291815 27.450099053838645 13.175380783152322 27.17829407718594 L 13.876616984337621 24.44477285998362 C 14.05848860749927 23.740407185968166 14.431606782298322 23.096260212167767 14.960346959337514 22.583496630873054 L 14.960346959337514 22.583496630873054 Z" fill="rgb(255,255,255)"/>
        </svg>