<svg width="165" height="167" viewBox="0 0 165 167" fill="none" xmlns="http://www.w3.org/2000/svg">
<path fill-rule="evenodd" clip-rule="evenodd" d="M83.169 0.0838082C80.1948 0.229243 72.929 0.992735 72.781 1.17535C72.7334 1.23415 71.4479 1.50115 69.9243 1.76902C68.4007 2.03672 67.0763 2.31307 66.981 2.38293C66.8858 2.45279 65.834 2.72637 64.6437 2.99096C63.4534 3.25537 62.4406 3.52531 62.393 3.59051C62.3454 3.65588 61.4508 3.92184 60.4051 4.18159C59.3595 4.44133 58.4635 4.71179 58.414 4.78252C58.3647 4.85308 57.7011 5.09138 56.9393 5.31187C56.1775 5.53253 55.4763 5.77048 55.3811 5.84069C55.2858 5.91107 54.5457 6.18551 53.7363 6.45062C52.9269 6.71589 52.1088 7.02976 51.9184 7.14822C51.7279 7.26685 51.0074 7.54251 50.3169 7.76092C49.6264 7.97916 49.0617 8.21244 49.0617 8.27919C49.0617 8.34594 48.4578 8.61814 47.7199 8.88411C46.982 9.1499 46.3392 9.42296 46.2914 9.49058C46.2438 9.55819 45.6594 9.83384 44.9929 10.1029C44.3265 10.372 43.7404 10.647 43.6907 10.7139C43.6412 10.781 43.0958 11.0734 42.4788 11.3641C41.8619 11.6546 40.8119 12.1971 40.1453 12.5698C39.4787 12.9425 38.5438 13.4588 38.0677 13.7175C37.5916 13.9762 37.1631 14.245 37.1155 14.3148C37.0678 14.3847 36.6935 14.6116 36.2837 14.8193C35.6078 15.1615 34.3209 16.0319 33.6498 16.6003C33.5054 16.7227 33.1548 16.9723 32.8707 17.1551C32.3148 17.5125 30.6854 18.8142 30.5256 19.0284C30.4721 19.1002 30.1638 19.3541 29.8402 19.5924C29.1172 20.1253 25.9267 23.1103 24.2057 24.8642C21.2038 27.9235 20.5839 28.5984 18.0134 31.6085C16.9611 32.8408 15.6469 34.5632 15.6469 34.71C15.6469 34.8018 15.5412 34.9391 15.4124 35.0152C15.2835 35.0913 14.9708 35.4842 14.7177 35.8885C14.4645 36.2927 14.1806 36.6235 14.0864 36.6235C13.9924 36.6235 13.9155 36.7224 13.9155 36.8435C13.9155 36.9645 13.6882 37.3391 13.4103 37.6758C13.1323 38.0125 12.7377 38.6086 12.5332 39.0004C12.3288 39.3921 12.0514 39.804 11.9167 39.9156C11.7822 40.0271 11.5632 40.3244 11.4302 40.5758C11.2974 40.8274 11.0571 41.2847 10.8962 41.5918C10.7356 41.8991 10.5299 42.1962 10.4393 42.2522C10.3486 42.3081 10.1696 42.6045 10.0415 42.9109C9.91319 43.2174 9.69764 43.5816 9.56225 43.7206C9.31536 43.9738 8.71008 45.0752 7.66557 47.1723C7.35756 47.7905 7.048 48.3353 6.97771 48.383C6.90724 48.4305 6.63369 48.9948 6.36983 49.6367C6.1058 50.2787 5.82585 50.8039 5.74759 50.8039C5.66916 50.8039 5.6051 50.9107 5.6051 51.0413C5.6051 51.2675 5.35198 51.9014 4.49133 53.8302C4.27924 54.3057 3.99824 55.045 3.86701 55.473C3.73595 55.901 3.57649 56.2901 3.5126 56.3377C3.44889 56.3852 3.17828 57.2023 2.91131 58.1534C2.64417 59.1046 2.37408 59.9217 2.31071 59.9692C2.24752 60.0168 1.98591 61.1062 1.72933 62.3902C1.47274 63.6743 1.19469 64.8493 1.11141 65.0017C0.938451 65.3176 0.527085 68.4709 0.211462 71.9015C-0.0712652 74.9739 -0.0702262 86.1387 0.213021 89.1946C0.56933 93.0389 0.933777 96.0038 1.09496 96.3712C1.17824 96.5615 1.45699 97.9233 1.71426 99.3975C1.97154 100.872 2.23644 102.117 2.30275 102.164C2.36923 102.212 2.60296 103.068 2.82215 104.067C3.04116 105.065 3.327 106.105 3.45703 106.377C3.58705 106.65 3.85922 107.467 4.06178 108.193C4.26435 108.92 4.57184 109.828 4.74532 110.212C4.91862 110.596 5.11132 111.112 5.17365 111.36C5.28446 111.801 7.78762 114.474 8.39273 114.798C8.56101 114.888 9.87423 114.961 11.3111 114.961H13.9233L14.7228 114.226C16.243 112.829 17.0427 111.953 17.136 111.581C17.1874 111.376 17.2045 109.971 17.1741 108.459C17.1228 105.927 17.0832 105.634 16.6713 104.758C16.4253 104.235 16.089 103.301 15.9239 102.683C15.7587 102.065 15.5193 101.326 15.3917 101.04C15.2639 100.755 14.9793 99.7045 14.759 98.7058C14.5386 97.7071 14.3042 96.8504 14.2379 96.8022C14.1716 96.7539 13.8975 95.3921 13.6288 93.7759C13.3603 92.1597 13.0968 90.7985 13.0431 90.751C12.9224 90.6438 12.593 87.9398 12.3372 84.9578C12.0038 81.0717 12.4607 71.8515 13.0483 70.6045C13.138 70.4143 13.2931 69.7528 13.3932 69.1346C13.6472 67.5644 14.1312 65.4335 14.2575 65.3301C14.3156 65.2825 14.5835 64.4459 14.8529 63.4711C15.1223 62.4963 15.3984 61.6985 15.4665 61.6985C15.5345 61.6985 15.723 61.2212 15.8854 60.6378C16.0478 60.0543 16.3371 59.2566 16.5283 58.8652C16.7196 58.4737 17.0787 57.6476 17.3264 57.0294C17.574 56.4112 17.8372 55.8654 17.9109 55.8166C17.9847 55.7678 18.2615 55.2231 18.5261 54.6061C18.7905 53.9891 19.0585 53.4454 19.1215 53.3978C19.1845 53.3503 19.4544 52.8444 19.721 52.2738C19.9878 51.7031 20.2605 51.1973 20.327 51.1497C20.3937 51.1022 20.6234 50.7131 20.8378 50.2851C21.0521 49.8571 21.3265 49.3901 21.4477 49.2475C21.5687 49.1048 21.8798 48.5789 22.1389 48.0786C22.398 47.5785 22.6806 47.1258 22.7668 47.0727C22.8529 47.0194 23.0795 46.6893 23.2703 46.3391C23.4611 45.9889 23.8832 45.3522 24.2085 44.9242C24.5338 44.4962 24.8051 44.0623 24.8115 43.9599C24.8178 43.8577 25.0177 43.5912 25.2558 43.3678C25.4938 43.1444 25.6886 42.8706 25.6886 42.7593C25.6886 42.6479 25.8424 42.4177 26.0304 42.2477C26.3398 41.9681 26.4097 41.9636 26.7662 42.1998C26.983 42.3434 27.398 42.6844 27.6883 42.9576C27.9788 43.2308 28.7924 43.9601 29.4962 44.5783C30.2001 45.1966 31.0532 45.953 31.392 46.2592C31.7308 46.5655 32.3901 47.1491 32.8571 47.5562C33.324 47.9633 34.1923 48.7489 34.7865 49.3021C35.3808 49.8552 36.0929 50.4777 36.3689 50.6856C36.645 50.8933 37.0289 51.2189 37.2221 51.4091C37.4153 51.5993 37.8405 51.9872 38.1669 52.271C39.5279 53.4549 42.0702 55.7125 42.3341 55.9719C42.4906 56.1255 43.0316 56.6014 43.5366 57.0294C44.0417 57.4574 44.6875 58.0241 44.9717 58.2887C45.256 58.5533 45.9155 59.1369 46.4372 59.5857C46.9588 60.0344 47.5965 60.5961 47.8541 60.8339C48.1115 61.0716 48.7329 61.6164 49.2348 62.0444C49.7367 62.4724 50.3593 63.0171 50.6183 63.2549C51.0524 63.6533 52.8395 65.25 54.4891 66.7135C54.8644 67.0464 55.4912 67.6072 55.8821 67.9598C56.2731 68.3125 56.7326 68.7029 56.9031 68.8274C57.1896 69.0365 57.1339 69.1477 56.1673 70.2948C55.5919 70.9773 55.1214 71.5904 55.1214 71.6571C55.1214 71.7239 54.9621 71.9425 54.7677 72.1427C53.9089 73.0262 51.6667 76.035 51.4478 76.5972C51.3794 76.7728 51.2484 76.9165 51.1566 76.9165C51.0647 76.9165 50.9423 77.0654 50.8844 77.2471C50.8266 77.429 50.5681 77.8486 50.31 78.1794C50.052 78.5102 49.6071 79.1514 49.3214 79.6045C49.0357 80.0574 48.5525 80.8247 48.2474 81.3094C47.6233 82.3017 46.8878 83.597 46.0777 85.1307C45.7761 85.7014 45.4479 86.2255 45.3478 86.2954C45.2344 86.3748 45.2311 86.4244 45.3393 86.4277C45.4437 86.4308 45.4383 86.4836 45.3262 86.56C45.2237 86.6299 44.9562 87.1345 44.7316 87.6814C44.5071 88.2283 44.2598 88.6758 44.1821 88.6758C44.1043 88.6758 44.0567 88.7341 44.0763 88.8055C44.0959 88.8769 43.94 89.3148 43.73 89.7786C43.52 90.2426 43.3483 90.7233 43.3483 90.8471C43.3483 90.9708 43.2409 91.1793 43.1097 91.3104C42.9786 91.4415 42.6658 92.1668 42.4147 92.9223C42.1637 93.6778 41.8489 94.5295 41.7151 94.8149C41.4388 95.4039 40.7513 97.8503 40.7513 98.2441C40.7513 98.3871 40.6858 98.5299 40.6057 98.5618C40.5255 98.5934 40.2473 99.7088 39.9874 101.04C39.7273 102.372 39.4476 103.617 39.3655 103.807C39.2097 104.169 38.7777 107.697 38.508 110.811C38.4216 111.81 38.3752 116.401 38.4051 121.014C38.45 127.943 38.5222 130.033 38.8203 133.033C39.0189 135.03 39.2606 136.937 39.3574 137.269C39.4543 137.602 39.735 139.198 39.9808 140.815C40.2268 142.431 40.4966 143.91 40.5804 144.1C40.6642 144.29 40.9353 145.458 41.1829 146.694C41.4305 147.931 41.6974 149.061 41.7759 149.207C41.8545 149.353 42.1344 150.384 42.3981 151.498C42.6618 152.613 42.9359 153.525 43.007 153.525C43.0784 153.525 43.1873 153.794 43.2491 154.124C43.3344 154.578 43.756 155.113 45.0001 156.346C45.9013 157.239 46.9501 158.109 47.3309 158.281C47.7114 158.452 48.0229 158.648 48.0229 158.716C48.0229 158.783 48.4877 159.047 49.0558 159.302C49.624 159.556 50.1268 159.826 50.1734 159.901C50.2198 159.976 50.7873 160.26 51.4343 160.532C52.0815 160.804 52.6499 161.075 52.6975 161.134C52.7451 161.193 53.2515 161.427 53.8229 161.653C54.3942 161.879 54.9006 162.115 54.9482 162.178C54.9958 162.242 55.4633 162.433 55.987 162.604C56.5108 162.774 57.3288 163.088 57.8049 163.3C58.2811 163.512 59.2939 163.866 60.0557 164.086C60.8175 164.306 61.4797 164.541 61.5273 164.609C61.5749 164.677 62.5878 164.947 63.7781 165.209C64.9684 165.471 65.9812 165.741 66.0288 165.808C66.159 165.991 70.9996 166.656 73.5601 166.841C76.4947 167.053 82.9362 167.053 86.1123 166.841C89.2909 166.628 94.9738 165.981 95.2018 165.806C95.2971 165.733 96.6605 165.455 98.2317 165.188C99.8029 164.92 101.127 164.648 101.175 164.583C101.223 164.517 102.119 164.288 103.166 164.073C104.213 163.858 105.304 163.581 105.59 163.458C105.876 163.334 106.879 163.028 107.818 162.778C109.735 162.267 110.462 161.869 111.676 160.666C113.347 159.011 113.294 159.158 113.294 156.166C113.294 154.018 113.241 153.432 113.016 153.088C112.672 152.564 111.54 151.424 110.593 150.648L109.883 150.066H107.174C105.684 150.066 104.465 150.135 104.465 150.219C104.465 150.303 104.289 150.412 104.075 150.46C102.588 150.795 100.659 151.332 100.223 151.531C99.9371 151.661 98.8074 151.945 97.7123 152.161C96.6172 152.377 95.6823 152.608 95.6347 152.675C95.5332 152.816 90.5655 153.698 89.8733 153.698C89.614 153.698 89.4019 153.765 89.4019 153.847C89.4019 153.929 88.2138 154.143 86.7616 154.323C83.0889 154.777 76.4291 154.781 73.7506 154.331C72.7126 154.157 71.7388 153.95 71.5864 153.872C71.434 153.793 70.4524 153.558 69.4049 153.35C68.3574 153.142 67.2667 152.864 66.981 152.733C66.6954 152.603 65.762 152.294 64.9071 152.048C64.052 151.802 63.3118 151.54 63.2623 151.465C63.2126 151.389 62.7436 151.191 62.2199 151.023C61.0749 150.656 59.574 149.986 56.7783 148.593L54.6885 147.551L54.2886 145.826C54.0685 144.877 53.8156 143.965 53.7263 143.8C53.6369 143.636 53.3667 142.468 53.1257 141.206C52.8847 139.945 52.5824 138.562 52.4539 138.134C52.3253 137.706 52.0467 136.072 51.8346 134.503C51.6225 132.933 51.3825 131.494 51.3012 131.303C51.2198 131.113 51.0178 129.557 50.8519 127.845C50.432 123.507 50.4355 116.184 50.8595 112.454C51.0325 110.932 51.2259 109.648 51.2894 109.6C51.3528 109.553 51.5849 108.425 51.8055 107.093C52.0261 105.761 52.3112 104.438 52.4394 104.153C52.6412 103.704 53.2636 101.486 53.5192 100.305C53.5656 100.092 53.6631 99.9163 53.736 99.9163C53.8087 99.9163 53.9593 99.5466 54.0704 99.0949C54.1816 98.6432 54.4905 97.8066 54.7566 97.2359C55.0229 96.6652 55.4231 95.7314 55.6463 95.1607C55.8695 94.59 56.1096 94.0832 56.1799 94.0344C56.2502 93.9857 56.5251 93.4409 56.7907 92.8239C57.0565 92.2069 57.3688 91.6044 57.4848 91.4849C57.6008 91.3654 57.7511 91.093 57.8186 90.8796C57.8863 90.6662 58.2419 90.0162 58.6091 89.4353C58.9762 88.8544 59.2766 88.3049 59.2766 88.2141C59.2766 88.1235 59.4258 87.8891 59.6085 87.6936C59.791 87.4978 60.1429 86.9579 60.3905 86.4936C60.6381 86.0294 61.3467 84.9491 61.965 84.0931C62.5833 83.2371 63.1425 82.42 63.2076 82.2773C63.2727 82.1347 63.4344 81.9083 63.5672 81.7741C63.7 81.6401 63.9974 81.2315 64.2284 80.8662C64.4592 80.501 64.7249 80.2022 64.8191 80.2022C64.9131 80.2022 64.99 80.1263 64.99 80.0332C64.99 79.6246 69.9522 73.728 72.6934 70.8793C74.2561 69.2553 76.4461 67.1049 77.9179 65.7491C79.8847 63.9376 80.2699 63.5985 82.2239 61.9579C82.677 61.5775 83.1753 61.1467 83.3309 61.0006C83.4867 60.8546 83.923 60.505 84.3007 60.2234C84.6781 59.9421 85.0259 59.6683 85.0735 59.6152C85.1211 59.5621 85.4717 59.2898 85.8526 59.01C86.2335 58.7302 86.5841 58.4578 86.6317 58.4047C86.6793 58.3516 87.0249 58.0787 87.3996 57.7984C88.6565 56.8582 90.2596 55.0856 90.3662 54.5182C90.4218 54.2224 90.4419 52.8571 90.4107 51.4842L90.3541 48.9881L88.8899 47.5557C88.0847 46.768 87.2578 46.0813 87.0524 46.0297C86.8471 45.9782 85.5192 45.9614 84.1015 45.9922L81.5243 46.0482L80.572 46.7927C79.2406 47.8338 78.5072 48.4259 78.1717 48.7311C78.0133 48.875 77.6121 49.1847 77.2801 49.4195C76.9482 49.6542 76.4428 50.0545 76.1571 50.3093C75.8715 50.564 74.9365 51.3789 74.0795 52.1202C73.2225 52.8614 72.3594 53.6273 72.1615 53.822C71.9637 54.0167 71.1177 54.7986 70.2818 55.5595C69.4459 56.3204 68.1104 57.58 67.3141 58.3587L65.8662 59.7743L65.3189 59.3098C65.018 59.0542 64.5232 58.6117 64.2194 58.3264C63.9157 58.041 63.0912 57.3017 62.3874 56.6835C60.635 55.1443 59.8424 54.4401 59.1762 53.8302C58.8645 53.5448 58.2037 52.9612 57.7076 52.5332C57.2116 52.1052 56.5932 51.5604 56.3333 51.3226C56.0734 51.0849 55.4502 50.5401 54.9484 50.1121C54.4467 49.6841 53.7884 49.1005 53.4856 48.8151C53.1828 48.5298 52.6282 48.034 52.2536 47.7136C51.8787 47.393 50.9951 46.6148 50.2899 45.9843C49.0271 44.8552 48.2364 44.1567 47.0036 43.0816C46.0486 42.2484 44.7365 41.0824 44.2122 40.6009C43.9532 40.3631 43.3308 39.8184 42.8289 39.3904C42.327 38.9624 41.7052 38.4177 41.4473 38.1799C41.1891 37.9421 40.401 37.2417 39.696 36.6235C38.9908 36.0053 38.1238 35.2271 37.769 34.8942C37.4143 34.5613 36.6158 33.8632 35.9944 33.3426C35.373 32.8223 34.8647 32.3061 34.8647 32.1959C34.8647 32.0856 35.1391 31.7863 35.4747 31.5307C35.8102 31.2751 36.2642 30.8964 36.4835 30.6888C37.2051 30.0066 38.0137 29.3607 38.5208 29.0616C38.7954 28.8995 39.0199 28.7126 39.0199 28.6462C39.0199 28.5798 39.3899 28.2856 39.8423 27.9927C41.9573 26.6227 42.2354 26.4373 42.4165 26.276C42.5229 26.1812 43.0238 25.8941 43.5295 25.6382C44.0353 25.3823 44.5382 25.084 44.6473 24.9752C44.7564 24.8666 45.2683 24.584 45.785 24.3473C46.3016 24.1104 46.7633 23.866 46.8109 23.8041C46.9359 23.6414 50.8912 21.7514 51.1066 21.7514C51.2063 21.7514 51.3907 21.6489 51.5165 21.5233C51.6422 21.3979 52.3296 21.074 53.0438 20.8036C53.7579 20.5333 54.3812 20.2557 54.4288 20.1871C54.4764 20.1182 55.1387 19.8438 55.9005 19.577C56.6623 19.3103 57.3245 19.0404 57.3721 18.9774C57.4197 18.9145 58.004 18.6878 58.6706 18.4738C59.3372 18.2597 60.1942 17.9431 60.5751 17.7702C60.956 17.5972 61.774 17.3206 62.393 17.1556C63.0119 16.9904 63.5963 16.7969 63.6915 16.7255C63.7867 16.6543 64.6437 16.39 65.596 16.1384C66.5482 15.8868 67.4831 15.6125 67.6736 15.529C68.2619 15.2708 69.1679 15.0382 70.79 14.7283C71.647 14.5647 72.3871 14.3788 72.4348 14.3154C72.5409 14.1737 74.9467 13.7079 76.9362 13.4436C77.7456 13.336 78.5375 13.1804 78.6958 13.0979C78.8542 13.0153 80.1397 12.81 81.5525 12.6417C86.465 12.0565 95.6705 12.3164 97.4526 13.0907C97.643 13.1735 98.6169 13.4128 99.6168 13.6226C100.617 13.8324 101.668 14.1071 101.954 14.2332C102.24 14.3593 103.175 14.6711 104.032 14.926C104.889 15.1809 105.629 15.4474 105.676 15.5181C105.724 15.5888 106.308 15.8199 106.975 16.0315C107.642 16.243 108.345 16.518 108.539 16.6425C108.733 16.7668 109.434 17.084 110.097 17.3474C110.761 17.6107 111.342 17.8788 111.39 17.9429C111.437 18.0071 111.924 18.2431 112.472 18.4674C113.02 18.6917 113.467 18.9297 113.467 18.9963C113.467 19.0628 113.902 19.2934 114.433 19.5087C114.964 19.7238 115.495 19.9968 115.614 20.1153C115.732 20.2338 116.252 20.5438 116.769 20.8044C117.286 21.0649 117.748 21.3353 117.796 21.4055C117.843 21.4757 118.311 21.7481 118.835 22.0108C119.358 22.2735 119.826 22.5457 119.873 22.6155C119.921 22.6854 120.283 22.9061 120.678 23.106C121.073 23.3059 121.501 23.5719 121.63 23.6971C121.759 23.8223 122.215 24.1401 122.644 24.4035C123.072 24.6667 123.851 25.1908 124.375 25.5682C124.899 25.9453 125.697 26.4928 126.15 26.7846C126.602 27.0761 126.972 27.3692 126.972 27.4357C126.972 27.5021 127.196 27.689 127.471 27.851C127.745 28.0129 128.224 28.3605 128.534 28.6232C128.844 28.886 129.373 29.3344 129.709 29.6198L130.319 30.1386H133.03C135.2 30.1386 135.795 30.0869 136.017 29.8792C136.169 29.7365 136.923 29.0052 137.693 28.2541L139.091 26.8885V24.0284V21.1681L137.345 19.4635C136.384 18.5261 135.294 17.5575 134.921 17.3112C134.548 17.0648 134.242 16.8154 134.24 16.7566C134.238 16.698 133.849 16.4198 133.374 16.1386C132.9 15.8574 132.512 15.5676 132.512 15.4946C132.512 15.4216 132.289 15.2464 132.016 15.1055C131.743 14.9645 131.334 14.6889 131.107 14.4931C130.689 14.1321 129.641 13.4223 128.199 12.5234C127.762 12.2513 127.366 11.9699 127.318 11.8983C127.271 11.8265 126.907 11.6035 126.51 11.4025C126.113 11.2016 125.439 10.8019 125.013 10.5147C124.587 10.2273 124.167 9.99208 124.08 9.99208C123.992 9.99208 123.769 9.85581 123.584 9.68945C123.265 9.40273 122.645 9.06119 120.165 7.80813C119.576 7.51051 119.016 7.19664 118.921 7.1107C118.826 7.02458 118.32 6.77417 117.796 6.5542C117.272 6.33424 116.671 6.04492 116.46 5.91125C116.248 5.77757 115.625 5.50105 115.074 5.29682C114.524 5.09276 114.034 4.86795 113.987 4.79739C113.939 4.72701 113.277 4.45672 112.515 4.1968C111.753 3.93689 111.042 3.65397 110.934 3.56803C110.826 3.48208 110.047 3.20937 109.203 2.9619C108.358 2.71444 107.587 2.44847 107.488 2.37082C107.39 2.29318 106.377 2.0215 105.238 1.76678C104.098 1.51222 103.127 1.24729 103.079 1.17812C102.946 0.984607 97.7505 0.316746 94.9421 0.132229C92.6348 -0.019432 85.8497 -0.0474466 83.169 0.0838082ZM149.22 46.1921C148.839 46.2947 148.488 46.4309 148.44 46.4949C148.393 46.5589 147.575 46.8294 146.623 47.096C145.67 47.3629 144.852 47.6364 144.805 47.7042C144.757 47.772 144.05 48.0311 143.233 48.2796C142.416 48.5283 141.442 48.8755 141.068 49.0514C140.695 49.2272 139.903 49.5136 139.308 49.6878C138.713 49.8621 138.226 50.0613 138.226 50.1306C138.226 50.2 137.583 50.4692 136.797 50.729C136.012 50.9887 135.327 51.2647 135.276 51.3424C135.225 51.4198 134.679 51.6728 134.064 51.9046C133.448 52.1361 132.711 52.4476 132.426 52.5966C132.14 52.7457 131.127 53.2265 130.175 53.665C127.662 54.8221 125.514 55.8868 125.408 56.0279C125.357 56.0956 124.85 56.356 124.282 56.6069C123.714 56.8578 123.211 57.1198 123.163 57.1893C123.077 57.3147 121.448 58.2283 119.787 59.0824C119.311 59.3273 118.894 59.5905 118.862 59.6673C118.829 59.7441 118.41 60.0055 117.93 60.2483C117.45 60.4911 116.908 60.8289 116.726 60.9988C116.543 61.1688 116.086 61.4466 115.71 61.6159C115.334 61.7853 115.026 61.9827 115.026 62.0542C115.026 62.1258 114.656 62.4008 114.203 62.6652C113.751 62.9294 113.285 63.2406 113.169 63.3564C113.053 63.4721 112.674 63.7417 112.328 63.9554C111.981 64.1692 111.503 64.5246 111.265 64.7451C111.027 64.9657 110.685 65.1928 110.505 65.2497C110.325 65.3067 110.178 65.4188 110.178 65.4989C110.178 65.5788 109.827 65.8653 109.399 66.1356C108.971 66.4059 108.62 66.6748 108.62 66.7332C108.62 66.7917 108.295 67.0641 107.898 67.3385C107.501 67.6129 106.968 68.0321 106.715 68.2699C106.461 68.5077 105.909 69.0024 105.489 69.3694C102.738 71.77 98.1353 76.2752 95.375 79.2687C94.518 80.1982 93.5051 81.2918 93.1242 81.6992C92.7433 82.1067 92.1822 82.7341 91.8773 83.0936C91.5723 83.4531 91.0915 84.0196 90.8086 84.3525C89.5591 85.8231 88.9178 86.6048 88.1899 87.5438C87.7614 88.0968 87.0599 88.9862 86.6309 89.5204C85.529 90.8924 84.4802 92.3055 84.113 92.9126C83.9404 93.198 83.7158 93.5092 83.6138 93.6043C83.5119 93.6995 83.2172 94.0885 82.959 94.469C82.7009 94.8494 82.2528 95.4941 81.9637 95.9017C81.6744 96.3093 81.4363 96.6984 81.4348 96.7664C81.433 96.8343 81.2383 97.0733 81.0019 97.2973C80.7654 97.5212 80.572 97.7984 80.572 97.9131C80.572 98.0279 80.4323 98.2726 80.2616 98.457C80.0909 98.6415 79.6965 99.2381 79.3854 99.783C79.0741 100.328 78.7486 100.817 78.6619 100.871C78.5753 100.925 78.3462 101.325 78.153 101.761C77.8531 102.439 77.8019 102.919 77.8019 105.048C77.8019 106.851 77.8692 107.672 78.0446 108.01C78.2501 108.405 80.0703 110.225 80.9763 110.941C81.1671 111.091 82.02 111.157 83.7932 111.157H86.3364L87.0774 110.55C88.2256 109.611 90.0944 107.571 90.0944 107.257C90.0944 107.185 90.2932 106.865 90.5361 106.547C90.779 106.229 90.9317 105.969 90.8756 105.969C90.8195 105.969 90.9324 105.799 91.1264 105.59C91.3205 105.382 91.4795 105.121 91.4795 105.01C91.4795 104.9 91.6549 104.618 91.869 104.385C92.0832 104.152 92.3683 103.753 92.5027 103.498C92.6369 103.244 92.8931 102.878 93.0721 102.686C93.251 102.494 93.336 102.336 93.2608 102.335C93.1857 102.333 93.2099 102.275 93.3149 102.205C93.4196 102.135 93.7091 101.767 93.958 101.386C94.2072 101.006 94.6445 100.383 94.9302 100.003C95.2159 99.6223 95.773 98.8545 96.1683 98.2967C96.5634 97.7388 97.014 97.142 97.1697 96.9705C97.3253 96.7991 97.7253 96.2932 98.0586 95.8466C99.1432 94.3927 100.468 92.7494 100.913 92.3055C101.152 92.0666 101.348 91.7922 101.348 91.6955C101.348 91.5989 101.562 91.3111 101.824 91.0559C102.086 90.8008 102.549 90.2972 102.853 89.9366C103.694 88.9392 107.09 85.2106 107.688 84.6277C109.459 82.9011 111.908 80.666 113.105 79.6834C113.51 79.3505 114.06 78.8836 114.326 78.6458C114.998 78.0457 115.787 77.427 117.103 76.4701C117.722 76.0202 118.501 75.4433 118.835 75.1882C119.168 74.9331 119.61 74.6346 119.817 74.5247C120.024 74.4147 120.296 74.2219 120.423 74.0961C120.549 73.9704 121.042 73.6418 121.518 73.3658C121.994 73.09 122.489 72.7618 122.618 72.6366C122.747 72.5114 123.176 72.2454 123.571 72.0455C123.965 71.8456 124.327 71.625 124.375 71.5551C124.423 71.4852 124.89 71.213 125.414 70.9503C125.937 70.6877 126.405 70.4153 126.452 70.3451C126.5 70.2749 126.968 70.0025 127.491 69.7398C128.015 69.4771 128.485 69.1977 128.536 69.1188C128.587 69.0401 129.093 68.7704 129.661 68.5194C130.229 68.2685 130.733 68.0048 130.781 67.9332C130.828 67.8616 131.374 67.5804 131.993 67.3084C132.612 67.0362 133.157 66.762 133.205 66.6988C133.252 66.6357 133.72 66.4055 134.244 66.1875C134.767 65.9692 135.313 65.7 135.455 65.589C135.598 65.4779 135.988 65.2825 136.321 65.1549C136.654 65.0273 137.55 64.6313 138.312 64.275C139.074 63.9188 139.911 63.574 140.173 63.5088C140.435 63.4437 140.649 63.3345 140.649 63.2661C140.649 63.1977 141.292 62.9203 142.078 62.6496C142.864 62.3788 143.662 62.0629 143.852 61.9475C144.043 61.8322 144.627 61.6022 145.151 61.4365C145.675 61.271 146.493 60.9586 146.969 60.7424C148.644 59.9817 148.533 59.9275 148.943 61.7053C149.143 62.572 149.306 63.3919 149.306 63.5274C149.306 63.6628 149.371 63.7737 149.45 63.7737C149.528 63.7737 149.819 64.9214 150.096 66.3244C150.373 67.7274 150.649 68.9141 150.709 68.9616C150.833 69.0592 151.254 71.5113 151.569 73.9766C151.685 74.8802 151.838 75.6973 151.909 75.7924C151.981 75.8875 152.182 77.2883 152.357 78.9052C152.801 83.0023 152.8 89.7523 152.355 93.0855C152.177 94.4171 151.983 95.5455 151.924 95.593C151.864 95.6406 151.598 96.7652 151.332 98.0921C151.066 99.4192 150.787 100.586 150.713 100.686C150.637 100.786 150.358 101.704 150.092 102.726C149.825 103.749 149.54 104.585 149.457 104.585C149.374 104.585 149.306 104.684 149.306 104.804C149.306 105.167 148.444 107.762 148.289 107.863C148.21 107.915 148.005 108.386 147.833 108.909C147.662 109.432 147.306 110.288 147.042 110.811C146.777 111.334 146.508 111.977 146.443 112.239C146.378 112.502 146.255 112.759 146.171 112.811C146.086 112.864 146.017 113.058 146.017 113.242C146.017 113.427 145.95 113.578 145.869 113.578C145.789 113.578 145.501 114.103 145.231 114.745C144.96 115.387 144.687 115.951 144.622 115.999C144.558 116.046 144.285 116.552 144.017 117.123C143.748 117.694 143.431 118.258 143.312 118.378C143.193 118.497 143.043 118.77 142.978 118.983C142.913 119.196 142.688 119.605 142.478 119.89C142.268 120.175 141.919 120.781 141.701 121.236C141.483 121.691 141.206 122.163 141.084 122.284C140.962 122.406 140.696 122.831 140.493 123.23C140.29 123.628 140.063 123.954 139.99 123.954C139.916 123.954 139.532 123.662 139.135 123.305C138.738 122.949 138.045 122.346 137.595 121.965C136.814 121.305 136.533 121.06 134.782 119.521C133.34 118.251 132.765 117.752 131.127 116.344C130.222 115.567 129.288 114.757 129.05 114.545C128.811 114.334 127.954 113.588 127.145 112.888C126.336 112.189 125.44 111.403 125.154 111.142C124.868 110.881 124.293 110.369 123.875 110.004C123.457 109.639 122.834 109.095 122.49 108.794C121.436 107.874 120.143 106.772 119.517 106.262L118.921 105.776L116.064 105.829L113.208 105.882L111.909 107.185C111.195 107.901 110.513 108.702 110.394 108.965C110.126 109.558 110.099 113.861 110.359 114.561C110.535 115.037 113.121 117.647 114.782 119.025C115.24 119.406 115.867 119.95 116.175 120.236C116.483 120.521 117.105 121.066 117.557 121.446C118.009 121.827 118.657 122.385 118.996 122.686C119.336 122.987 120.665 124.147 121.951 125.264C124.45 127.434 124.576 127.544 125.74 128.563C126.158 128.929 126.813 129.501 127.195 129.833C127.578 130.166 128.146 130.672 128.459 130.957C128.772 131.243 129.395 131.788 129.845 132.168C131.908 133.914 135.54 137.085 136.522 137.997C136.87 138.321 137.434 138.777 137.776 139.009C138.117 139.241 138.397 139.489 138.398 139.561C138.398 139.632 139.606 139.691 141.081 139.691C143.61 139.691 143.79 139.668 144.225 139.301C144.995 138.652 147.575 136.046 147.575 135.917C147.575 135.85 147.75 135.599 147.964 135.359C148.516 134.74 149.133 133.852 149.133 133.675C149.133 133.593 149.328 133.343 149.566 133.119C149.804 132.896 149.999 132.643 149.999 132.558C149.999 132.473 150.349 131.912 150.778 131.312C151.206 130.713 151.557 130.154 151.557 130.071C151.557 129.988 151.752 129.694 151.99 129.417C152.228 129.141 152.423 128.837 152.423 128.742C152.423 128.647 152.606 128.328 152.831 128.034C153.055 127.74 153.464 127.082 153.74 126.572C154.015 126.062 154.525 125.128 154.872 124.496C155.219 123.865 155.76 122.843 156.074 122.224C156.388 121.606 156.747 120.998 156.871 120.872C156.996 120.746 157.097 120.562 157.097 120.464C157.097 120.365 157.448 119.549 157.876 118.652C158.305 117.754 158.655 116.935 158.655 116.832C158.655 116.729 158.802 116.402 158.982 116.106C159.162 115.809 159.489 115.061 159.708 114.443C159.928 113.824 160.19 113.261 160.29 113.191C160.391 113.122 160.405 113.063 160.322 113.062C160.239 113.06 160.25 112.962 160.347 112.843C160.444 112.724 160.689 112.088 160.892 111.43C161.094 110.771 161.347 110.127 161.454 109.999C161.561 109.87 161.599 109.716 161.538 109.655C161.478 109.595 161.497 109.461 161.582 109.357C161.666 109.253 161.907 108.546 162.118 107.785C162.329 107.024 162.564 106.323 162.64 106.228C162.716 106.133 162.993 104.966 163.256 103.634C163.52 102.303 163.788 101.174 163.851 101.127C163.998 101.018 164.488 97.4846 164.702 94.9878C164.998 91.5387 165.088 85.5414 164.905 81.4127C164.71 77.0074 164.112 70.4694 163.852 69.9128C163.764 69.7225 163.606 68.9443 163.503 68.1834C163.206 66.0114 162.816 63.8925 162.642 63.5143C162.555 63.3241 162.277 62.1179 162.026 60.8339C161.774 59.5499 161.507 58.4215 161.433 58.3264C161.358 58.2313 161.08 57.239 160.814 56.1215C160.548 55.004 160.265 54.0895 160.186 54.0895C160.106 54.0895 160.04 53.9618 160.04 53.8056C160.04 53.3688 159.367 51.1198 159.082 50.6043C158.943 50.3518 158.829 50.0227 158.829 49.8728C158.829 49.5193 155.656 46.3434 155.087 46.1273C154.507 45.9071 150.097 45.9557 149.22 46.1921Z" fill="#B56B98"/>
<path fill-rule="evenodd" clip-rule="evenodd" d="M83.169 0.0838082C80.1948 0.229243 72.929 0.992735 72.781 1.17535C72.7334 1.23415 71.4479 1.50115 69.9243 1.76902C68.4007 2.03672 67.0763 2.31307 66.981 2.38293C66.8858 2.45279 65.834 2.72637 64.6437 2.99096C63.4534 3.25537 62.4406 3.52531 62.393 3.59051C62.3454 3.65588 61.4508 3.92184 60.4051 4.18159C59.3595 4.44133 58.4635 4.71179 58.414 4.78252C58.3647 4.85308 57.7011 5.09138 56.9393 5.31187C56.1775 5.53253 55.4763 5.77048 55.3811 5.84069C55.2858 5.91107 54.5457 6.18551 53.7363 6.45062C52.9269 6.71589 52.1088 7.02976 51.9184 7.14822C51.7279 7.26685 51.0074 7.54251 50.3169 7.76092C49.6264 7.97916 49.0617 8.21244 49.0617 8.27919C49.0617 8.34594 48.4578 8.61814 47.7199 8.88411C46.982 9.1499 46.3392 9.42296 46.2914 9.49058C46.2438 9.55819 45.6594 9.83384 44.9929 10.1029C44.3265 10.372 43.7404 10.647 43.6907 10.7139C43.6412 10.781 43.0958 11.0734 42.4788 11.3641C41.8619 11.6546 40.8119 12.1971 40.1453 12.5698C39.4787 12.9425 38.5438 13.4588 38.0677 13.7175C37.5916 13.9762 37.1631 14.245 37.1155 14.3148C37.0678 14.3847 36.6935 14.6116 36.2837 14.8193C35.6078 15.1615 34.3209 16.0319 33.6498 16.6003C33.5054 16.7227 33.1548 16.9723 32.8707 17.1551C32.3148 17.5125 30.6854 18.8142 30.5256 19.0284C30.4721 19.1002 30.1638 19.3541 29.8402 19.5924C29.1172 20.1253 25.9267 23.1103 24.2057 24.8642C21.2038 27.9235 20.5839 28.5984 18.0134 31.6085C16.9611 32.8408 15.6469 34.5632 15.6469 34.71C15.6469 34.8018 15.5412 34.9391 15.4124 35.0152C15.2835 35.0913 14.9708 35.4842 14.7177 35.8885C14.4645 36.2927 14.1806 36.6235 14.0864 36.6235C13.9924 36.6235 13.9155 36.7224 13.9155 36.8435C13.9155 36.9645 13.6882 37.3391 13.4103 37.6758C13.1323 38.0125 12.7377 38.6086 12.5332 39.0004C12.3288 39.3921 12.0514 39.804 11.9167 39.9156C11.7822 40.0271 11.5632 40.3244 11.4302 40.5758C11.2974 40.8274 11.0571 41.2847 10.8962 41.5918C10.7356 41.8991 10.5299 42.1962 10.4393 42.2522C10.3486 42.3081 10.1696 42.6045 10.0415 42.9109C9.91319 43.2174 9.69764 43.5816 9.56225 43.7206C9.31536 43.9738 8.71008 45.0752 7.66557 47.1723C7.35756 47.7905 7.048 48.3353 6.97771 48.383C6.90724 48.4305 6.63369 48.9948 6.36983 49.6367C6.1058 50.2787 5.82585 50.8039 5.74759 50.8039C5.66916 50.8039 5.6051 50.9107 5.6051 51.0413C5.6051 51.2675 5.35198 51.9014 4.49133 53.8302C4.27924 54.3057 3.99824 55.045 3.86701 55.473C3.73595 55.901 3.57649 56.2901 3.5126 56.3377C3.44889 56.3852 3.17828 57.2023 2.91131 58.1534C2.64417 59.1046 2.37408 59.9217 2.31071 59.9692C2.24752 60.0168 1.98591 61.1062 1.72933 62.3902C1.47274 63.6743 1.19469 64.8493 1.11141 65.0017C0.938451 65.3176 0.527085 68.4709 0.211462 71.9015C-0.0712652 74.9739 -0.0702262 86.1387 0.213021 89.1946C0.56933 93.0389 0.933777 96.0038 1.09496 96.3712C1.17824 96.5615 1.45699 97.9233 1.71426 99.3975C1.97154 100.872 2.23644 102.117 2.30275 102.164C2.36923 102.212 2.60296 103.068 2.82215 104.067C3.04116 105.065 3.327 106.105 3.45703 106.377C3.58705 106.65 3.85922 107.467 4.06178 108.193C4.26435 108.92 4.57184 109.828 4.74532 110.212C4.91862 110.596 5.11132 111.112 5.17365 111.36C5.28446 111.801 7.78762 114.474 8.39273 114.798C8.56101 114.888 9.87423 114.961 11.3111 114.961H13.9233L14.7228 114.226C16.243 112.829 17.0427 111.953 17.136 111.581C17.1874 111.376 17.2045 109.971 17.1741 108.459C17.1228 105.927 17.0832 105.634 16.6713 104.758C16.4253 104.235 16.089 103.301 15.9239 102.683C15.7587 102.065 15.5193 101.326 15.3917 101.04C15.2639 100.755 14.9793 99.7045 14.759 98.7058C14.5386 97.7071 14.3042 96.8504 14.2379 96.8022C14.1716 96.7539 13.8975 95.3921 13.6288 93.7759C13.3603 92.1597 13.0968 90.7985 13.0431 90.751C12.9224 90.6438 12.593 87.9398 12.3372 84.9578C12.0038 81.0717 12.4607 71.8515 13.0483 70.6045C13.138 70.4143 13.2931 69.7528 13.3932 69.1346C13.6472 67.5644 14.1312 65.4335 14.2575 65.3301C14.3156 65.2825 14.5835 64.4459 14.8529 63.4711C15.1223 62.4963 15.3984 61.6985 15.4665 61.6985C15.5345 61.6985 15.723 61.2212 15.8854 60.6378C16.0478 60.0543 16.3371 59.2566 16.5283 58.8652C16.7196 58.4737 17.0787 57.6476 17.3264 57.0294C17.574 56.4112 17.8372 55.8654 17.9109 55.8166C17.9847 55.7678 18.2615 55.2231 18.5261 54.6061C18.7905 53.9891 19.0585 53.4454 19.1215 53.3978C19.1845 53.3503 19.4544 52.8444 19.721 52.2738C19.9878 51.7031 20.2605 51.1973 20.327 51.1497C20.3937 51.1022 20.6234 50.7131 20.8378 50.2851C21.0521 49.8571 21.3265 49.3901 21.4477 49.2475C21.5687 49.1048 21.8798 48.5789 22.1389 48.0786C22.398 47.5785 22.6806 47.1258 22.7668 47.0727C22.8529 47.0194 23.0795 46.6893 23.2703 46.3391C23.4611 45.9889 23.8832 45.3522 24.2085 44.9242C24.5338 44.4962 24.8051 44.0623 24.8115 43.9599C24.8178 43.8577 25.0177 43.5912 25.2558 43.3678C25.4938 43.1444 25.6886 42.8706 25.6886 42.7593C25.6886 42.6479 25.8424 42.4177 26.0304 42.2477C26.3398 41.9681 26.4097 41.9636 26.7662 42.1998C26.983 42.3434 27.398 42.6844 27.6883 42.9576C27.9788 43.2308 28.7924 43.9601 29.4962 44.5783C30.2001 45.1966 31.0532 45.953 31.392 46.2592C31.7308 46.5655 32.3901 47.1491 32.8571 47.5562C33.324 47.9633 34.1923 48.7489 34.7865 49.3021C35.3808 49.8552 36.0929 50.4777 36.3689 50.6856C36.645 50.8933 37.0289 51.2189 37.2221 51.4091C37.4153 51.5993 37.8405 51.9872 38.1669 52.271C39.5279 53.4549 42.0702 55.7125 42.3341 55.9719C42.4906 56.1255 43.0316 56.6014 43.5366 57.0294C44.0417 57.4574 44.6875 58.0241 44.9717 58.2887C45.256 58.5533 45.9155 59.1369 46.4372 59.5857C46.9588 60.0344 47.5965 60.5961 47.8541 60.8339C48.1115 61.0716 48.7329 61.6164 49.2348 62.0444C49.7367 62.4724 50.3593 63.0171 50.6183 63.2549C51.0524 63.6533 52.8395 65.25 54.4891 66.7135C54.8644 67.0464 55.4912 67.6072 55.8821 67.9598C56.2731 68.3125 56.7326 68.7029 56.9031 68.8274C57.1896 69.0365 57.1339 69.1477 56.1673 70.2948C55.5919 70.9773 55.1214 71.5904 55.1214 71.6571C55.1214 71.7239 54.9621 71.9425 54.7677 72.1427C53.9089 73.0262 51.6667 76.035 51.4478 76.5972C51.3794 76.7728 51.2484 76.9165 51.1566 76.9165C51.0647 76.9165 50.9423 77.0654 50.8844 77.2471C50.8266 77.429 50.5681 77.8486 50.31 78.1794C50.052 78.5102 49.6071 79.1514 49.3214 79.6045C49.0357 80.0574 48.5525 80.8247 48.2474 81.3094C47.6233 82.3017 46.8878 83.597 46.0777 85.1307C45.7761 85.7014 45.4479 86.2255 45.3478 86.2954C45.2344 86.3748 45.2311 86.4244 45.3393 86.4277C45.4437 86.4308 45.4383 86.4836 45.3262 86.56C45.2237 86.6299 44.9562 87.1345 44.7316 87.6814C44.5071 88.2283 44.2598 88.6758 44.1821 88.6758C44.1043 88.6758 44.0567 88.7341 44.0763 88.8055C44.0959 88.8769 43.94 89.3148 43.73 89.7786C43.52 90.2426 43.3483 90.7233 43.3483 90.8471C43.3483 90.9708 43.2409 91.1793 43.1097 91.3104C42.9786 91.4415 42.6658 92.1668 42.4147 92.9223C42.1637 93.6778 41.8489 94.5295 41.7151 94.8149C41.4388 95.4039 40.7513 97.8503 40.7513 98.2441C40.7513 98.3871 40.6858 98.5299 40.6057 98.5618C40.5255 98.5934 40.2473 99.7088 39.9874 101.04C39.7273 102.372 39.4476 103.617 39.3655 103.807C39.2097 104.169 38.7777 107.697 38.508 110.811C38.4216 111.81 38.3752 116.401 38.4051 121.014C38.45 127.943 38.5222 130.033 38.8203 133.033C39.0189 135.03 39.2606 136.937 39.3574 137.269C39.4543 137.602 39.735 139.198 39.9808 140.815C40.2268 142.431 40.4966 143.91 40.5804 144.1C40.6642 144.29 40.9353 145.458 41.1829 146.694C41.4305 147.931 41.6974 149.061 41.7759 149.207C41.8545 149.353 42.1344 150.384 42.3981 151.498C42.6618 152.613 42.9359 153.525 43.007 153.525C43.0784 153.525 43.1873 153.794 43.2491 154.124C43.3344 154.578 43.756 155.113 45.0001 156.346C45.9013 157.239 46.9501 158.109 47.3309 158.281C47.7114 158.452 48.0229 158.648 48.0229 158.716C48.0229 158.783 48.4877 159.047 49.0558 159.302C49.624 159.556 50.1268 159.826 50.1734 159.901C50.2198 159.976 50.7873 160.26 51.4343 160.532C52.0815 160.804 52.6499 161.075 52.6975 161.134C52.7451 161.193 53.2515 161.427 53.8229 161.653C54.3942 161.879 54.9006 162.115 54.9482 162.178C54.9958 162.242 55.4633 162.433 55.987 162.604C56.5108 162.774 57.3288 163.088 57.8049 163.3C58.2811 163.512 59.2939 163.866 60.0557 164.086C60.8175 164.306 61.4797 164.541 61.5273 164.609C61.5749 164.677 62.5878 164.947 63.7781 165.209C64.9684 165.471 65.9812 165.741 66.0288 165.808C66.159 165.991 70.9996 166.656 73.5601 166.841C76.4947 167.053 82.9362 167.053 86.1123 166.841C89.2909 166.628 94.9738 165.981 95.2018 165.806C95.2971 165.733 96.6605 165.455 98.2317 165.188C99.8029 164.92 101.127 164.648 101.175 164.583C101.223 164.517 102.119 164.288 103.166 164.073C104.213 163.858 105.304 163.581 105.59 163.458C105.876 163.334 106.879 163.028 107.818 162.778C109.735 162.267 110.462 161.869 111.676 160.666C113.347 159.011 113.294 159.158 113.294 156.166C113.294 154.018 113.241 153.432 113.016 153.088C112.672 152.564 111.54 151.424 110.593 150.648L109.883 150.066H107.174C105.684 150.066 104.465 150.135 104.465 150.219C104.465 150.303 104.289 150.412 104.075 150.46C102.588 150.795 100.659 151.332 100.223 151.531C99.9371 151.661 98.8074 151.945 97.7123 152.161C96.6172 152.377 95.6823 152.608 95.6347 152.675C95.5332 152.816 90.5655 153.698 89.8733 153.698C89.614 153.698 89.4019 153.765 89.4019 153.847C89.4019 153.929 88.2138 154.143 86.7616 154.323C83.0889 154.777 76.4291 154.781 73.7506 154.331C72.7126 154.157 71.7388 153.95 71.5864 153.872C71.434 153.793 70.4524 153.558 69.4049 153.35C68.3574 153.142 67.2667 152.864 66.981 152.733C66.6954 152.603 65.762 152.294 64.9071 152.048C64.052 151.802 63.3118 151.54 63.2623 151.465C63.2126 151.389 62.7436 151.191 62.2199 151.023C61.0749 150.656 59.574 149.986 56.7783 148.593L54.6885 147.551L54.2886 145.826C54.0685 144.877 53.8156 143.965 53.7263 143.8C53.6369 143.636 53.3667 142.468 53.1257 141.206C52.8847 139.945 52.5824 138.562 52.4539 138.134C52.3253 137.706 52.0467 136.072 51.8346 134.503C51.6225 132.933 51.3825 131.494 51.3012 131.303C51.2198 131.113 51.0178 129.557 50.8519 127.845C50.432 123.507 50.4355 116.184 50.8595 112.454C51.0325 110.932 51.2259 109.648 51.2894 109.6C51.3528 109.553 51.5849 108.425 51.8055 107.093C52.0261 105.761 52.3112 104.438 52.4394 104.153C52.6412 103.704 53.2636 101.486 53.5192 100.305C53.5656 100.092 53.6631 99.9163 53.736 99.9163C53.8087 99.9163 53.9593 99.5466 54.0704 99.0949C54.1816 98.6432 54.4905 97.8066 54.7566 97.2359C55.0229 96.6652 55.4231 95.7314 55.6463 95.1607C55.8695 94.59 56.1096 94.0832 56.1799 94.0344C56.2502 93.9857 56.5251 93.4409 56.7907 92.8239C57.0565 92.2069 57.3688 91.6044 57.4848 91.4849C57.6008 91.3654 57.7511 91.093 57.8186 90.8796C57.8863 90.6662 58.2419 90.0162 58.6091 89.4353C58.9762 88.8544 59.2766 88.3049 59.2766 88.2141C59.2766 88.1235 59.4258 87.8891 59.6085 87.6936C59.791 87.4978 60.1429 86.9579 60.3905 86.4936C60.6381 86.0294 61.3467 84.9491 61.965 84.0931C62.5833 83.2371 63.1425 82.42 63.2076 82.2773C63.2727 82.1347 63.4344 81.9083 63.5672 81.7741C63.7 81.6401 63.9974 81.2315 64.2284 80.8662C64.4592 80.501 64.7249 80.2022 64.8191 80.2022C64.9131 80.2022 64.99 80.1263 64.99 80.0332C64.99 79.6246 69.9522 73.728 72.6934 70.8793C74.2561 69.2553 76.4461 67.1049 77.9179 65.7491C79.8847 63.9376 80.2699 63.5985 82.2239 61.9579C82.677 61.5775 83.1753 61.1467 83.3309 61.0006C83.4867 60.8546 83.923 60.505 84.3007 60.2234C84.6781 59.9421 85.0259 59.6683 85.0735 59.6152C85.1211 59.5621 85.4717 59.2898 85.8526 59.01C86.2335 58.7302 86.5841 58.4578 86.6317 58.4047C86.6793 58.3516 87.0249 58.0787 87.3996 57.7984C88.6565 56.8582 90.2596 55.0856 90.3662 54.5182C90.4218 54.2224 90.4419 52.8571 90.4107 51.4842L90.3541 48.9881L88.8899 47.5557C88.0847 46.768 87.2578 46.0813 87.0524 46.0297C86.8471 45.9782 85.5192 45.9614 84.1015 45.9922L81.5243 46.0482L80.572 46.7927C79.2406 47.8338 78.5072 48.4259 78.1717 48.7311C78.0133 48.875 77.6121 49.1847 77.2801 49.4195C76.9482 49.6542 76.4428 50.0545 76.1571 50.3093C75.8715 50.564 74.9365 51.3789 74.0795 52.1202C73.2225 52.8614 72.3594 53.6273 72.1615 53.822C71.9637 54.0167 71.1177 54.7986 70.2818 55.5595C69.4459 56.3204 68.1104 57.58 67.3141 58.3587L65.8662 59.7743L65.3189 59.3098C65.018 59.0542 64.5232 58.6117 64.2194 58.3264C63.9157 58.041 63.0912 57.3017 62.3874 56.6835C60.635 55.1443 59.8424 54.4401 59.1762 53.8302C58.8645 53.5448 58.2037 52.9612 57.7076 52.5332C57.2116 52.1052 56.5932 51.5604 56.3333 51.3226C56.0734 51.0849 55.4502 50.5401 54.9484 50.1121C54.4467 49.6841 53.7884 49.1005 53.4856 48.8151C53.1828 48.5298 52.6282 48.034 52.2536 47.7136C51.8787 47.393 50.9951 46.6148 50.2899 45.9843C49.0271 44.8552 48.2364 44.1567 47.0036 43.0816C46.0486 42.2484 44.7365 41.0824 44.2122 40.6009C43.9532 40.3631 43.3308 39.8184 42.8289 39.3904C42.327 38.9624 41.7052 38.4177 41.4473 38.1799C41.1891 37.9421 40.401 37.2417 39.696 36.6235C38.9908 36.0053 38.1238 35.2271 37.769 34.8942C37.4143 34.5613 36.6158 33.8632 35.9944 33.3426C35.373 32.8223 34.8647 32.3061 34.8647 32.1959C34.8647 32.0856 35.1391 31.7863 35.4747 31.5307C35.8102 31.2751 36.2642 30.8964 36.4835 30.6888C37.2051 30.0066 38.0137 29.3607 38.5208 29.0616C38.7954 28.8995 39.0199 28.7126 39.0199 28.6462C39.0199 28.5798 39.3899 28.2856 39.8423 27.9927C41.9573 26.6227 42.2354 26.4373 42.4165 26.276C42.5229 26.1812 43.0238 25.8941 43.5295 25.6382C44.0353 25.3823 44.5382 25.084 44.6473 24.9752C44.7564 24.8666 45.2683 24.584 45.785 24.3473C46.3016 24.1104 46.7633 23.866 46.8109 23.8041C46.9359 23.6414 50.8912 21.7514 51.1066 21.7514C51.2063 21.7514 51.3907 21.6489 51.5165 21.5233C51.6422 21.3979 52.3296 21.074 53.0438 20.8036C53.7579 20.5333 54.3812 20.2557 54.4288 20.1871C54.4764 20.1182 55.1387 19.8438 55.9005 19.577C56.6623 19.3103 57.3245 19.0404 57.3721 18.9774C57.4197 18.9145 58.004 18.6878 58.6706 18.4738C59.3372 18.2597 60.1942 17.9431 60.5751 17.7702C60.956 17.5972 61.774 17.3206 62.393 17.1556C63.0119 16.9904 63.5963 16.7969 63.6915 16.7255C63.7867 16.6543 64.6437 16.39 65.596 16.1384C66.5482 15.8868 67.4831 15.6125 67.6736 15.529C68.2619 15.2708 69.1679 15.0382 70.79 14.7283C71.647 14.5647 72.3871 14.3788 72.4348 14.3154C72.5409 14.1737 74.9467 13.7079 76.9362 13.4436C77.7456 13.336 78.5375 13.1804 78.6958 13.0979C78.8542 13.0153 80.1397 12.81 81.5525 12.6417C86.465 12.0565 95.6705 12.3164 97.4526 13.0907C97.643 13.1735 98.6169 13.4128 99.6168 13.6226C100.617 13.8324 101.668 14.1071 101.954 14.2332C102.24 14.3593 103.175 14.6711 104.032 14.926C104.889 15.1809 105.629 15.4474 105.676 15.5181C105.724 15.5888 106.308 15.8199 106.975 16.0315C107.642 16.243 108.345 16.518 108.539 16.6425C108.733 16.7668 109.434 17.084 110.097 17.3474C110.761 17.6107 111.342 17.8788 111.39 17.9429C111.437 18.0071 111.924 18.2431 112.472 18.4674C113.02 18.6917 113.467 18.9297 113.467 18.9963C113.467 19.0628 113.902 19.2934 114.433 19.5087C114.964 19.7238 115.495 19.9968 115.614 20.1153C115.732 20.2338 116.252 20.5438 116.769 20.8044C117.286 21.0649 117.748 21.3353 117.796 21.4055C117.843 21.4757 118.311 21.7481 118.835 22.0108C119.358 22.2735 119.826 22.5457 119.873 22.6155C119.921 22.6854 120.283 22.9061 120.678 23.106C121.073 23.3059 121.501 23.5719 121.63 23.6971C121.759 23.8223 122.215 24.1401 122.644 24.4035C123.072 24.6667 123.851 25.1908 124.375 25.5682C124.899 25.9453 125.697 26.4928 126.15 26.7846C126.602 27.0761 126.972 27.3692 126.972 27.4357C126.972 27.5021 127.196 27.689 127.471 27.851C127.745 28.0129 128.224 28.3605 128.534 28.6232C128.844 28.886 129.373 29.3344 129.709 29.6198L130.319 30.1386H133.03C135.2 30.1386 135.795 30.0869 136.017 29.8792C136.169 29.7365 136.923 29.0052 137.693 28.2541L139.091 26.8885V24.0284V21.1681L137.345 19.4635C136.384 18.5261 135.294 17.5575 134.921 17.3112C134.548 17.0648 134.242 16.8154 134.24 16.7566C134.238 16.698 133.849 16.4198 133.374 16.1386C132.9 15.8574 132.512 15.5676 132.512 15.4946C132.512 15.4216 132.289 15.2464 132.016 15.1055C131.743 14.9645 131.334 14.6889 131.107 14.4931C130.689 14.1321 129.641 13.4223 128.199 12.5234C127.762 12.2513 127.366 11.9699 127.318 11.8983C127.271 11.8265 126.907 11.6035 126.51 11.4025C126.113 11.2016 125.439 10.8019 125.013 10.5147C124.587 10.2273 124.167 9.99208 124.08 9.99208C123.992 9.99208 123.769 9.85581 123.584 9.68945C123.265 9.40273 122.645 9.06119 120.165 7.80813C119.576 7.51051 119.016 7.19664 118.921 7.1107C118.826 7.02458 118.32 6.77417 117.796 6.5542C117.272 6.33424 116.671 6.04492 116.46 5.91125C116.248 5.77757 115.625 5.50105 115.074 5.29682C114.524 5.09276 114.034 4.86795 113.987 4.79739C113.939 4.72701 113.277 4.45672 112.515 4.1968C111.753 3.93689 111.042 3.65397 110.934 3.56803C110.826 3.48208 110.047 3.20937 109.203 2.9619C108.358 2.71444 107.587 2.44847 107.488 2.37082C107.39 2.29318 106.377 2.0215 105.238 1.76678C104.098 1.51222 103.127 1.24729 103.079 1.17812C102.946 0.984607 97.7505 0.316746 94.9421 0.132229C92.6348 -0.019432 85.8497 -0.0474466 83.169 0.0838082ZM149.22 46.1921C148.839 46.2947 148.488 46.4309 148.44 46.4949C148.393 46.5589 147.575 46.8294 146.623 47.096C145.67 47.3629 144.852 47.6364 144.805 47.7042C144.757 47.772 144.05 48.0311 143.233 48.2796C142.416 48.5283 141.442 48.8755 141.068 49.0514C140.695 49.2272 139.903 49.5136 139.308 49.6878C138.713 49.8621 138.226 50.0613 138.226 50.1306C138.226 50.2 137.583 50.4692 136.797 50.729C136.012 50.9887 135.327 51.2647 135.276 51.3424C135.225 51.4198 134.679 51.6728 134.064 51.9046C133.448 52.1361 132.711 52.4476 132.426 52.5966C132.14 52.7457 131.127 53.2265 130.175 53.665C127.662 54.8221 125.514 55.8868 125.408 56.0279C125.357 56.0956 124.85 56.356 124.282 56.6069C123.714 56.8578 123.211 57.1198 123.163 57.1893C123.077 57.3147 121.448 58.2283 119.787 59.0824C119.311 59.3273 118.894 59.5905 118.862 59.6673C118.829 59.7441 118.41 60.0055 117.93 60.2483C117.45 60.4911 116.908 60.8289 116.726 60.9988C116.543 61.1688 116.086 61.4466 115.71 61.6159C115.334 61.7853 115.026 61.9827 115.026 62.0542C115.026 62.1258 114.656 62.4008 114.203 62.6652C113.751 62.9294 113.285 63.2406 113.169 63.3564C113.053 63.4721 112.674 63.7417 112.328 63.9554C111.981 64.1692 111.503 64.5246 111.265 64.7451C111.027 64.9657 110.685 65.1928 110.505 65.2497C110.325 65.3067 110.178 65.4188 110.178 65.4989C110.178 65.5788 109.827 65.8653 109.399 66.1356C108.971 66.4059 108.62 66.6748 108.62 66.7332C108.62 66.7917 108.295 67.0641 107.898 67.3385C107.501 67.6129 106.968 68.0321 106.715 68.2699C106.461 68.5077 105.909 69.0024 105.489 69.3694C102.738 71.77 98.1353 76.2752 95.375 79.2687C94.518 80.1982 93.5051 81.2918 93.1242 81.6992C92.7433 82.1067 92.1822 82.7341 91.8773 83.0936C91.5723 83.4531 91.0915 84.0196 90.8086 84.3525C89.5591 85.8231 88.9178 86.6048 88.1899 87.5438C87.7614 88.0968 87.0599 88.9862 86.6309 89.5204C85.529 90.8924 84.4802 92.3055 84.113 92.9126C83.9404 93.198 83.7158 93.5092 83.6138 93.6043C83.5119 93.6995 83.2172 94.0885 82.959 94.469C82.7009 94.8494 82.2528 95.4941 81.9637 95.9017C81.6744 96.3093 81.4363 96.6984 81.4348 96.7664C81.433 96.8343 81.2383 97.0733 81.0019 97.2973C80.7654 97.5212 80.572 97.7984 80.572 97.9131C80.572 98.0279 80.4323 98.2726 80.2616 98.457C80.0909 98.6415 79.6965 99.2381 79.3854 99.783C79.0741 100.328 78.7486 100.817 78.6619 100.871C78.5753 100.925 78.3462 101.325 78.153 101.761C77.8531 102.439 77.8019 102.919 77.8019 105.048C77.8019 106.851 77.8692 107.672 78.0446 108.01C78.2501 108.405 80.0703 110.225 80.9763 110.941C81.1671 111.091 82.02 111.157 83.7932 111.157H86.3364L87.0774 110.55C88.2256 109.611 90.0944 107.571 90.0944 107.257C90.0944 107.185 90.2932 106.865 90.5361 106.547C90.779 106.229 90.9317 105.969 90.8756 105.969C90.8195 105.969 90.9324 105.799 91.1264 105.59C91.3205 105.382 91.4795 105.121 91.4795 105.01C91.4795 104.9 91.6549 104.618 91.869 104.385C92.0832 104.152 92.3683 103.753 92.5027 103.498C92.6369 103.244 92.8931 102.878 93.0721 102.686C93.251 102.494 93.336 102.336 93.2608 102.335C93.1857 102.333 93.2099 102.275 93.3149 102.205C93.4196 102.135 93.7091 101.767 93.958 101.386C94.2072 101.006 94.6445 100.383 94.9302 100.003C95.2159 99.6223 95.773 98.8545 96.1683 98.2967C96.5634 97.7388 97.014 97.142 97.1697 96.9705C97.3253 96.7991 97.7253 96.2932 98.0586 95.8466C99.1432 94.3927 100.468 92.7494 100.913 92.3055C101.152 92.0666 101.348 91.7922 101.348 91.6955C101.348 91.5989 101.562 91.3111 101.824 91.0559C102.086 90.8008 102.549 90.2972 102.853 89.9366C103.694 88.9392 107.09 85.2106 107.688 84.6277C109.459 82.9011 111.908 80.666 113.105 79.6834C113.51 79.3505 114.06 78.8836 114.326 78.6458C114.998 78.0457 115.787 77.427 117.103 76.4701C117.722 76.0202 118.501 75.4433 118.835 75.1882C119.168 74.9331 119.61 74.6346 119.817 74.5247C120.024 74.4147 120.296 74.2219 120.423 74.0961C120.549 73.9704 121.042 73.6418 121.518 73.3658C121.994 73.09 122.489 72.7618 122.618 72.6366C122.747 72.5114 123.176 72.2454 123.571 72.0455C123.965 71.8456 124.327 71.625 124.375 71.5551C124.423 71.4852 124.89 71.213 125.414 70.9503C125.937 70.6877 126.405 70.4153 126.452 70.3451C126.5 70.2749 126.968 70.0025 127.491 69.7398C128.015 69.4771 128.485 69.1977 128.536 69.1188C128.587 69.0401 129.093 68.7704 129.661 68.5194C130.229 68.2685 130.733 68.0048 130.781 67.9332C130.828 67.8616 131.374 67.5804 131.993 67.3084C132.612 67.0362 133.157 66.762 133.205 66.6988C133.252 66.6357 133.72 66.4055 134.244 66.1875C134.767 65.9692 135.313 65.7 135.455 65.589C135.598 65.4779 135.988 65.2825 136.321 65.1549C136.654 65.0273 137.55 64.6313 138.312 64.275C139.074 63.9188 139.911 63.574 140.173 63.5088C140.435 63.4437 140.649 63.3345 140.649 63.2661C140.649 63.1977 141.292 62.9203 142.078 62.6496C142.864 62.3788 143.662 62.0629 143.852 61.9475C144.043 61.8322 144.627 61.6022 145.151 61.4365C145.675 61.271 146.493 60.9586 146.969 60.7424C148.644 59.9817 148.533 59.9275 148.943 61.7053C149.143 62.572 149.306 63.3919 149.306 63.5274C149.306 63.6628 149.371 63.7737 149.45 63.7737C149.528 63.7737 149.819 64.9214 150.096 66.3244C150.373 67.7274 150.649 68.9141 150.709 68.9616C150.833 69.0592 151.254 71.5113 151.569 73.9766C151.685 74.8802 151.838 75.6973 151.909 75.7924C151.981 75.8875 152.182 77.2883 152.357 78.9052C152.801 83.0023 152.8 89.7523 152.355 93.0855C152.177 94.4171 151.983 95.5455 151.924 95.593C151.864 95.6406 151.598 96.7652 151.332 98.0921C151.066 99.4192 150.787 100.586 150.713 100.686C150.637 100.786 150.358 101.704 150.092 102.726C149.825 103.749 149.54 104.585 149.457 104.585C149.374 104.585 149.306 104.684 149.306 104.804C149.306 105.167 148.444 107.762 148.289 107.863C148.21 107.915 148.005 108.386 147.833 108.909C147.662 109.432 147.306 110.288 147.042 110.811C146.777 111.334 146.508 111.977 146.443 112.239C146.378 112.502 146.255 112.759 146.171 112.811C146.086 112.864 146.017 113.058 146.017 113.242C146.017 113.427 145.95 113.578 145.869 113.578C145.789 113.578 145.501 114.103 145.231 114.745C144.96 115.387 144.687 115.951 144.622 115.999C144.558 116.046 144.285 116.552 144.017 117.123C143.748 117.694 143.431 118.258 143.312 118.378C143.193 118.497 143.043 118.77 142.978 118.983C142.913 119.196 142.688 119.605 142.478 119.89C142.268 120.175 141.919 120.781 141.701 121.236C141.483 121.691 141.206 122.163 141.084 122.284C140.962 122.406 140.696 122.831 140.493 123.23C140.29 123.628 140.063 123.954 139.99 123.954C139.916 123.954 139.532 123.662 139.135 123.305C138.738 122.949 138.045 122.346 137.595 121.965C136.814 121.305 136.533 121.06 134.782 119.521C133.34 118.251 132.765 117.752 131.127 116.344C130.222 115.567 129.288 114.757 129.05 114.545C128.811 114.334 127.954 113.588 127.145 112.888C126.336 112.189 125.44 111.403 125.154 111.142C124.868 110.881 124.293 110.369 123.875 110.004C123.457 109.639 122.834 109.095 122.49 108.794C121.436 107.874 120.143 106.772 119.517 106.262L118.921 105.776L116.064 105.829L113.208 105.882L111.909 107.185C111.195 107.901 110.513 108.702 110.394 108.965C110.126 109.558 110.099 113.861 110.359 114.561C110.535 115.037 113.121 117.647 114.782 119.025C115.24 119.406 115.867 119.95 116.175 120.236C116.483 120.521 117.105 121.066 117.557 121.446C118.009 121.827 118.657 122.385 118.996 122.686C119.336 122.987 120.665 124.147 121.951 125.264C124.45 127.434 124.576 127.544 125.74 128.563C126.158 128.929 126.813 129.501 127.195 129.833C127.578 130.166 128.146 130.672 128.459 130.957C128.772 131.243 129.395 131.788 129.845 132.168C131.908 133.914 135.54 137.085 136.522 137.997C136.87 138.321 137.434 138.777 137.776 139.009C138.117 139.241 138.397 139.489 138.398 139.561C138.398 139.632 139.606 139.691 141.081 139.691C143.61 139.691 143.79 139.668 144.225 139.301C144.995 138.652 147.575 136.046 147.575 135.917C147.575 135.85 147.75 135.599 147.964 135.359C148.516 134.74 149.133 133.852 149.133 133.675C149.133 133.593 149.328 133.343 149.566 133.119C149.804 132.896 149.999 132.643 149.999 132.558C149.999 132.473 150.349 131.912 150.778 131.312C151.206 130.713 151.557 130.154 151.557 130.071C151.557 129.988 151.752 129.694 151.99 129.417C152.228 129.141 152.423 128.837 152.423 128.742C152.423 128.647 152.606 128.328 152.831 128.034C153.055 127.74 153.464 127.082 153.74 126.572C154.015 126.062 154.525 125.128 154.872 124.496C155.219 123.865 155.76 122.843 156.074 122.224C156.388 121.606 156.747 120.998 156.871 120.872C156.996 120.746 157.097 120.562 157.097 120.464C157.097 120.365 157.448 119.549 157.876 118.652C158.305 117.754 158.655 116.935 158.655 116.832C158.655 116.729 158.802 116.402 158.982 116.106C159.162 115.809 159.489 115.061 159.708 114.443C159.928 113.824 160.19 113.261 160.29 113.191C160.391 113.122 160.405 113.063 160.322 113.062C160.239 113.06 160.25 112.962 160.347 112.843C160.444 112.724 160.689 112.088 160.892 111.43C161.094 110.771 161.347 110.127 161.454 109.999C161.561 109.87 161.599 109.716 161.538 109.655C161.478 109.595 161.497 109.461 161.582 109.357C161.666 109.253 161.907 108.546 162.118 107.785C162.329 107.024 162.564 106.323 162.64 106.228C162.716 106.133 162.993 104.966 163.256 103.634C163.52 102.303 163.788 101.174 163.851 101.127C163.998 101.018 164.488 97.4846 164.702 94.9878C164.998 91.5387 165.088 85.5414 164.905 81.4127C164.71 77.0074 164.112 70.4694 163.852 69.9128C163.764 69.7225 163.606 68.9443 163.503 68.1834C163.206 66.0114 162.816 63.8925 162.642 63.5143C162.555 63.3241 162.277 62.1179 162.026 60.8339C161.774 59.5499 161.507 58.4215 161.433 58.3264C161.358 58.2313 161.08 57.239 160.814 56.1215C160.548 55.004 160.265 54.0895 160.186 54.0895C160.106 54.0895 160.04 53.9618 160.04 53.8056C160.04 53.3688 159.367 51.1198 159.082 50.6043C158.943 50.3518 158.829 50.0227 158.829 49.8728C158.829 49.5193 155.656 46.3434 155.087 46.1273C154.507 45.9071 150.097 45.9557 149.22 46.1921Z" fill="url(#paint0_linear)" fill-opacity="0.2"/>
<defs>
<linearGradient id="paint0_linear" x1="82.5" y1="0" x2="82.5" y2="167" gradientUnits="userSpaceOnUse">
<stop offset="0.313447" stop-color="#2AF9AD"/>
<stop offset="1" stop-color="#5CE8B4" stop-opacity="0"/>
</linearGradient>
</defs>
</svg>
